<svg width="0" height="0" class="hidden">
    <symbol stroke="currentColor" fill="currentColor" stroke-width="0" xmlns="http://www.w3.org/2000/svg" viewBox="0 0 640 512" id="code">
        <path d="M392.8 1.2c-17-4.9-34.7 5-39.6 22l-128 448c-4.9 17 5 34.7 22 39.6s34.7-5 39.6-22l128-448c4.9-17-5-34.7-22-39.6zm80.6 120.1c-12.5 12.5-12.5 32.8 0 45.3L562.7 256l-89.4 89.4c-12.5 12.5-12.5 32.8 0 45.3s32.8 12.5 45.3 0l112-112c12.5-12.5 12.5-32.8 0-45.3l-112-112c-12.5-12.5-32.8-12.5-45.3 0zm-306.7 0c-12.5-12.5-32.8-12.5-45.3 0l-112 112c-12.5 12.5-12.5 32.8 0 45.3l112 112c12.5 12.5 32.8 12.5 45.3 0s12.5-32.8 0-45.3L77.3 256l89.4-89.4c12.5-12.5 12.5-32.8 0-45.3z"></path>
    </symbol>
    <symbol stroke="currentColor" fill="currentColor" stroke-width="0" xmlns="http://www.w3.org/2000/svg" viewBox="0 0 24 24" id="cppyright">
        <path d="M17 3.34a10 10 0 1 1 -14.995 8.984l-.005 -.324l.005 -.324a10 10 0 0 1 14.995 -8.336zm-2.34 5.659a4.016 4.016 0 0 0 -5.543 .23a3.993 3.993 0 0 0 0 5.542a4.016 4.016 0 0 0 5.543 .23a1 1 0 0 0 -1.32 -1.502c-.81 .711 -2.035 .66 -2.783 -.116a1.993 1.993 0 0 1 0 -2.766a2.016 2.016 0 0 1 2.783 -.116a1 1 0 0 0 1.32 -1.501z"></path>
    </symbol>
    <symbol stroke="currentColor" fill="currentColor" stroke-width="0" xmlns="http://www.w3.org/2000/svg" viewBox="0 0 512 512" id="debug">
        <path d="M463.55 272.13H400v-48.2q0-4.32-.27-8.47c29.57-27.88 32.25-64.63 32.27-103 0-8.61-6.64-16-15.25-16.41A16 16 0 0 0 400 112c0 28-1.86 48.15-9.9 63.84-19.22-41.15-65.78-63.91-134.1-63.91-39.8 0-74.19 9.13-99.43 26.39-14.9 10.19-26.2 22.91-33.7 37.72C114 160.65 112 141 112 112.46c0-8.61-6.6-16-15.2-16.44A16 16 0 0 0 80 112c0 37.63 2.61 73.73 32.44 101.63q-.43 5.06-.44 10.3v48.2H48.45c-8.61 0-16 6.62-16.43 15.23a16 16 0 0 0 16 16.77h64V320a143.32 143.32 0 0 0 10.39 53.69C96.74 396.64 80.18 422 80 463.34c0 8.74 6.62 16.3 15.36 16.65A16 16 0 0 0 112 464c0-27.66 9.1-44.71 26.17-61.32A144.37 144.37 0 0 0 220 459.42a16 16 0 0 0 20-15.49V192.45c0-8.61 6.62-16 15.23-16.43A16 16 0 0 1 272 192v251.93a16 16 0 0 0 20 15.49 144.4 144.4 0 0 0 81.82-56.74c17 16.54 26.09 33.52 26.17 60.95a16.27 16.27 0 0 0 15.1 16.37A16 16 0 0 0 432 464c0-41.68-16.6-67.23-42.39-90.31A143.32 143.32 0 0 0 400 320v-15.87h64a16 16 0 0 0 16-16.77c-.42-8.61-7.84-15.23-16.45-15.23z"></path>
        <path d="m321.39 104 .32.09c13.57 3.8 25.07-10.55 18.2-22.85A95.86 95.86 0 0 0 256.21 32h-.42a95.87 95.87 0 0 0-84.19 50.13c-6.84 12.58 5.14 27 18.84 22.86 19.71-6 41.79-9.06 65.56-9.06 24.09 0 46.09 2.72 65.39 8.07z"></path>
    </symbol>
    <symbol stroke="currentColor" fill="none" stroke-width="2" stroke-linecap="round" stroke-linejoin="round" xmlns="http://www.w3.org/2000/svg" viewBox="0 0 24 24" id="desktop">
        <path d="M12 16h-8a1 1 0 0 1 -1 -1v-10a1 1 0 0 1 1 -1h16a1 1 0 0 1 1 1v8"></path>
        <path d="M15 19l2 2l4 -4"></path>
        <path d="M7 20h4"></path>
        <path d="M9 16v4"></path>
    </symbol>
    <symbol stroke="currentColor" fill="currentColor" stroke-width="0" xmlns="http://www.w3.org/2000/svg" viewBox="0 0 640 512" id="fullStack">
        <path d="M255.03 261.65c6.25 6.25 16.38 6.25 22.63 0l11.31-11.31c6.25-6.25 6.25-16.38 0-22.63L253.25 192l35.71-35.72c6.25-6.25 6.25-16.38 0-22.63l-11.31-11.31c-6.25-6.25-16.38-6.25-22.63 0l-58.34 58.34c-6.25 6.25-6.25 16.38 0 22.63l58.35 58.34zm96.01-11.3l11.31 11.31c6.25 6.25 16.38 6.25 22.63 0l58.34-58.34c6.25-6.25 6.25-16.38 0-22.63l-58.34-58.34c-6.25-6.25-16.38-6.25-22.63 0l-11.31 11.31c-6.25 6.25-6.25 16.38 0 22.63L386.75 192l-35.71 35.72c-6.25 6.25-6.25 16.38 0 22.63zM624 416H381.54c-.74 19.81-14.71 32-32.74 32H288c-18.69 0-33.02-17.47-32.77-32H16c-8.8 0-16 7.2-16 16v16c0 35.2 28.8 64 64 64h512c35.2 0 64-28.8 64-64v-16c0-8.8-7.2-16-16-16zM576 48c0-26.4-21.6-48-48-48H112C85.6 0 64 21.6 64 48v336h512V48zm-64 272H128V64h384v256z"></path>
    </symbol>
    <symbol stroke="currentColor" fill="currentColor" stroke-width="0" xmlns="http://www.w3.org/2000/svg" viewBox="0 0 496 512" id="git">
        <path d="M165.9 397.4c0 2-2.3 3.6-5.2 3.6-3.3.3-5.6-1.3-5.6-3.6 0-2 2.3-3.6 5.2-3.6 3-.3 5.6 1.3 5.6 3.6zm-31.1-4.5c-.7 2 1.3 4.3 4.3 4.9 2.6 1 5.6 0 6.2-2s-1.3-4.3-4.3-5.2c-2.6-.7-5.5.3-6.2 2.3zm44.2-1.7c-2.9.7-4.9 2.6-4.6 4.9.3 2 2.9 3.3 5.9 2.6 2.9-.7 4.9-2.6 4.6-4.6-.3-1.9-3-3.2-5.9-2.9zM244.8 8C106.1 8 0 113.3 0 252c0 110.9 69.8 205.8 169.5 239.2 12.8 2.3 17.3-5.6 17.3-12.1 0-6.2-.3-40.4-.3-61.4 0 0-70 15-84.7-29.8 0 0-11.4-29.1-27.8-36.6 0 0-22.9-15.7 1.6-15.4 0 0 24.9 2 38.6 25.8 21.9 38.6 58.6 27.5 72.9 20.9 2.3-16 8.8-27.1 16-33.7-55.9-6.2-112.3-14.3-112.3-110.5 0-27.5 7.6-41.3 23.6-58.9-2.6-6.5-11.1-33.3 2.6-67.9 20.9-6.5 69 27 69 27 20-5.6 41.5-8.5 62.8-8.5s42.8 2.9 62.8 8.5c0 0 48.1-33.6 69-27 13.7 34.7 5.2 61.4 2.6 67.9 16 17.7 25.8 31.5 25.8 58.9 0 96.5-58.9 104.2-114.8 110.5 9.2 7.9 17 22.9 17 46.4 0 33.7-.3 75.4-.3 83.6 0 6.5 4.6 14.4 17.3 12.1C428.2 457.8 496 362.9 496 252 496 113.3 383.5 8 244.8 8zM97.2 352.9c-1.3 1-1 3.3.7 5.2 1.6 1.6 3.9 2.3 5.2 1 1.3-1 1-3.3-.7-5.2-1.6-1.6-3.9-2.3-5.2-1zm-10.8-8.1c-.7 1.3.3 2.9 2.3 3.9 1.6 1 3.6.7 4.3-.7.7-1.3-.3-2.9-2.3-3.9-2-.6-3.6-.3-4.3.7zm32.4 35.6c-1.6 1.3-1 4.3 1.3 6.2 2.3 2.3 5.2 2.6 6.5 1 1.3-1.3.7-4.3-1.3-6.2-2.2-2.3-5.2-2.6-6.5-1zm-11.4-14.7c-1.6 1-1.6 3.6 0 5.9 1.6 2.3 4.3 3.3 5.6 2.3 1.6-1.3 1.6-3.9 0-6.2-1.4-2.3-4-3.3-5.6-2z"></path>
    </symbol>
    <symbol stroke="currentColor" fill="currentColor" stroke-width="0" xmlns="http://www.w3.org/2000/svg" viewBox="0 0 24 24" id="graphQl">
        <path d="M14.3335126,2.85206923 L19.0436746,5.57156232 C19.1861408,5.42269933 19.3517561,5.29107777 19.5390336,5.18229987 C20.6054985,4.56924218 21.9657203,4.93324518 22.585164,5.99971013 C23.1982217,7.06617507 22.8342187,8.42639682 21.7677537,9.04584053 C21.5354003,9.17940894 21.2887997,9.26659782 21.038849,9.31024708 L21.038849,14.6900096 C21.2856344,14.7341019 21.5290274,14.8207365 21.7585099,14.9526546 C22.8303433,15.5715108 23.1940011,16.9304425 22.5751449,17.9958959 C21.9626686,19.0613494 20.597357,19.4250072 19.5319036,18.8125309 C19.2675499,18.6605671 19.046399,18.4622584 18.8726413,18.2336837 L14.2472483,20.9042339 C14.359389,21.1704807 14.4213527,21.4632106 14.4213527,21.770637 C14.4213527,22.997106 13.4248466,24 12.1919896,24 C10.9591327,24 9.96262662,23.0034939 9.96262662,21.770637 C9.96262662,21.5276826 10.001326,21.293907 10.0729072,21.0751276 L5.39448212,18.3739583 C5.24136397,18.5447862 5.05910975,18.6948998 4.84979559,18.8164775 C3.77694463,19.4295352 2.41672287,19.0655322 1.80366518,17.9990673 C1.19060749,16.9326023 1.55461049,15.5723806 2.62107544,14.9529369 C2.78345801,14.8595912 2.95265101,14.7888975 3.12500248,14.7398866 L3.12500248,9.26050018 C2.95045269,9.21143227 2.77917162,9.14021295 2.61500295,9.04584053 C1.548538,8.43278284 1.184535,7.06617507 1.79759269,5.99971013 C2.41065038,4.93324518 3.77725815,4.56924218 4.8437231,5.18229987 C4.99574654,5.27060092 5.13349582,5.37395472 5.25617553,5.48936462 L10.0208088,2.73842163 C9.98274768,2.57496174 9.96262662,2.40454853 9.96262662,2.22936302 C9.96262662,0.996506107 10.9591327,4.6629367e-14 12.1919896,4.6629367e-14 C13.4248466,4.6629367e-14 14.4213527,0.996506107 14.4213527,2.22936302 C14.4213527,2.44556708 14.3907061,2.6545024 14.3335126,2.85206923 Z M13.8405544,3.73141097 C13.7908242,3.78597435 13.7384158,3.8380524 13.6835353,3.88743909 L19.9624322,14.7624885 C19.9851165,14.7552188 20.0079142,14.7483109 20.0308156,14.7417672 L20.0308156,9.25474103 C19.4969015,9.10015188 19.0200076,8.74749468 18.7216233,8.22843028 C18.396599,7.66302338 18.3462063,7.01504748 18.5295247,6.43866863 L13.8405544,3.73141097 Z M10.5612952,3.75078761 C10.5290822,3.71626947 10.4979547,3.6807246 10.4679668,3.64420691 L5.81568405,6.33028239 C6.04182311,6.93281226 6.00669953,7.62728911 5.66113335,8.22843028 C5.32249418,8.81752134 4.75393127,9.19227671 4.13303588,9.30641503 L4.13303588,14.6916383 C4.16637437,14.6977154 4.19956458,14.7045461 4.23257942,14.7121233 L10.5612952,3.75078761 Z M12.8009687,4.3748119 C12.60746,4.42948073 12.403193,4.45872604 12.1919896,4.45872604 C11.9129003,4.45872604 11.645923,4.40765895 11.3998763,4.31434325 L5.14116232,15.1544358 C5.34676617,15.3211714 5.52618301,15.5275552 5.66720584,15.7703471 C5.76055152,15.9327297 5.83124515,16.1019227 5.8802561,16.2742741 L18.5020915,16.2742741 C18.5510684,16.101457 18.6218024,15.9318817 18.7152686,15.7692896 C18.8216025,15.5843129 18.950628,15.4204894 19.0968364,15.2792547 L12.8009687,4.3748119 Z M13.7498392,20.1747099 L18.4885766,17.4387184 C18.4752977,17.3870257 18.4638585,17.3348529 18.454287,17.2823075 L5.92850441,17.2823075 C5.91572246,17.3524283 5.89960649,17.4218931 5.88022341,17.4904498 L10.5957921,20.2130645 C11.0004395,19.7984186 11.5657199,19.541274 12.1919896,19.541274 C12.7987163,19.541274 13.3482006,19.7826203 13.7498392,20.1747099 Z"></path>
    </symbol>
    <symbol stroke="currentColor" fill="currentColor" stroke-width="0" xmlns="http://www.w3.org/2000/svg" viewBox="0 0 384 512" id="html">
        <path d="M0 32l34.9 395.8L191.5 480l157.6-52.2L384 32H0zm308.2 127.9H124.4l4.1 49.4h175.6l-13.6 148.4-97.9 27v.3h-1.1l-98.7-27.3-6-75.8h47.7L138 320l53.5 14.5 53.7-14.5 6-62.2H84.3L71.5 112.2h241.1l-4.4 47.7z"></path>
    </symbol>
    <symbol stroke="currentColor" fill="currentColor" stroke-width="0" xmlns="http://www.w3.org/2000/svg" viewBox="0 0 496 512" id="i18n">
        <path d="M336.5 160C322 70.7 287.8 8 248 8s-74 62.7-88.5 152h177zM152 256c0 22.2 1.2 43.5 3.3 64h185.3c2.1-20.5 3.3-41.8 3.3-64s-1.2-43.5-3.3-64H155.3c-2.1 20.5-3.3 41.8-3.3 64zm324.7-96c-28.6-67.9-86.5-120.4-158-141.6 24.4 33.8 41.2 84.7 50 141.6h108zM177.2 18.4C105.8 39.6 47.8 92.1 19.3 160h108c8.7-56.9 25.5-107.8 49.9-141.6zM487.4 192H372.7c2.1 21 3.3 42.5 3.3 64s-1.2 43-3.3 64h114.6c5.5-20.5 8.6-41.8 8.6-64s-3.1-43.5-8.5-64zM120 256c0-21.5 1.2-43 3.3-64H8.6C3.2 212.5 0 233.8 0 256s3.2 43.5 8.6 64h114.6c-2-21-3.2-42.5-3.2-64zm39.5 96c14.5 89.3 48.7 152 88.5 152s74-62.7 88.5-152h-177zm159.3 141.6c71.4-21.2 129.4-73.7 158-141.6h-108c-8.8 56.9-25.6 107.8-50 141.6zM19.3 352c28.6 67.9 86.5 120.4 158 141.6-24.4-33.8-41.2-84.7-50-141.6h-108z"></path>
    </symbol>
    <symbol stroke="currentColor" fill="currentColor" stroke-width="0" xmlns="http://www.w3.org/2000/svg" viewBox="0 0 24 24" id="javascript">
        <path d="M6 3C4.34315 3 3 4.34315 3 6V18C3 19.6569 4.34315 21 6 21H18C19.6569 21 21 19.6569 21 18V6C21 4.34315 19.6569 3 18 3H6ZM13.3344 16.055C14.0531 16.6343 14.7717 16.9203 15.4904 16.913C15.9304 16.913 16.2677 16.8323 16.5024 16.671C16.7297 16.517 16.8434 16.297 16.8434 16.011C16.8434 15.7177 16.7297 15.4683 16.5024 15.263C16.2677 15.0577 15.8241 14.8523 15.1714 14.647C14.3867 14.4197 13.7817 14.1263 13.3564 13.767C12.9384 13.4077 12.7257 12.9053 12.7184 12.26C12.7184 11.6513 12.9824 11.1417 13.5104 10.731C14.0237 10.3203 14.6801 10.115 15.4794 10.115C16.5941 10.115 17.4887 10.3863 18.1634 10.929L17.3934 12.128C17.1221 11.9153 16.8104 11.7613 16.4584 11.666C16.1064 11.556 15.7911 11.501 15.5124 11.501C15.1311 11.501 14.8267 11.5707 14.5994 11.71C14.3721 11.8493 14.2584 12.0327 14.2584 12.26C14.2584 12.5093 14.3977 12.722 14.6764 12.898C14.9551 13.0667 15.4317 13.2537 16.1064 13.459C16.9204 13.701 17.4997 14.0237 17.8444 14.427C18.1891 14.8303 18.3614 15.3437 18.3614 15.967C18.3614 16.605 18.1157 17.155 17.6244 17.617C17.1404 18.0717 16.4364 18.31 15.5124 18.332C14.3024 18.332 13.2904 17.969 12.4764 17.243L13.3344 16.055ZM7.80405 16.693C8.03872 16.8397 8.32105 16.913 8.65105 16.913C8.99572 16.913 9.28172 16.814 9.50905 16.616C9.73639 16.4107 9.85005 16.055 9.85005 15.549V10.247H11.3351V15.835C11.3131 16.7003 11.0637 17.3237 10.5871 17.705C10.3157 17.9323 10.0187 18.0937 9.69605 18.189C9.37339 18.2843 9.06172 18.332 8.76105 18.332C8.21105 18.332 7.72339 18.2367 7.29805 18.046C6.84339 17.8407 6.46205 17.4777 6.15405 16.957L7.18805 16.11C7.37872 16.3667 7.58405 16.561 7.80405 16.693Z"></path>
    </symbol>
    <symbol stroke="currentColor" fill="currentColor" stroke-width="0" role="img" xmlns="http://www.w3.org/2000/svg" viewBox="0 0 24 24" id="jest">
        <path d="M22.251 11.82a3.117 3.117 0 0 0-2.328-3.01L22.911 0H8.104L11.1 8.838a3.116 3.116 0 0 0-2.244 2.988c0 1.043.52 1.967 1.313 2.536a8.279 8.279 0 0 1-1.084 1.244 8.14 8.14 0 0 1-2.55 1.647c-.834-.563-1.195-1.556-.869-2.446a3.11 3.11 0 0 0-.91-6.08 3.117 3.117 0 0 0-3.113 3.113c0 .848.347 1.626.903 2.182-.048.097-.097.195-.146.299-.465.959-.993 2.043-1.195 3.259-.403 2.432.257 4.384 1.849 5.489A5.093 5.093 0 0 0 5.999 24c1.827 0 3.682-.917 5.475-1.807 1.279-.632 2.599-1.292 3.898-1.612.48-.118.98-.187 1.508-.264 1.07-.153 2.175-.312 3.168-.89a4.482 4.482 0 0 0 2.182-3.091c.174-.994 0-1.994-.444-2.87.298-.48.465-1.042.465-1.647zm-1.355 0c0 .965-.785 1.75-1.75 1.75a1.753 1.753 0 0 1-1.085-3.126l.007-.007c.056-.042.118-.084.18-.125 0 0 .008 0 .008-.007.028-.014.055-.035.083-.05.007 0 .014-.006.021-.006.028-.014.063-.028.097-.042.035-.014.07-.027.098-.041.007 0 .013-.007.02-.007.028-.007.056-.021.084-.028.007 0 .02-.007.028-.007.034-.007.062-.014.097-.02h.007l.104-.022c.007 0 .02 0 .028-.007.028 0 .055-.007.083-.007h.035c.035 0 .07-.007.111-.007h.09c.028 0 .05 0 .077.007h.014c.055.007.111.014.167.028a1.766 1.766 0 0 1 1.396 1.723zM10.043 1.39h10.93l-2.509 7.4c-.104.02-.208.055-.312.09l-2.64-5.385-2.648 5.35c-.104-.034-.216-.055-.327-.076l-2.494-7.38zm4.968 9.825a3.083 3.083 0 0 0-.938-1.668l1.438-2.904 1.452 2.967c-.43.43-.743.98-.868 1.605H15.01zm-3.481-1.098c.034-.007.062-.014.097-.02h.02c.029-.008.056-.008.084-.015h.028c.028 0 .049-.007.076-.007h.271c.028 0 .049.007.07.007.014 0 .02 0 .035.007.027.007.048.007.076.014.007 0 .014 0 .028.007l.097.02h.007c.028.008.056.015.083.029.007 0 .014.007.028.007.021.007.049.014.07.027.007 0 .014.007.02.007.028.014.056.021.084.035h.007a.374.374 0 0 1 .09.049h.007c.028.014.056.034.084.048.007 0 .007.007.013.007.028.014.05.035.077.049l.007.007c.083.062.16.132.236.201l.007.007a1.747 1.747 0 0 1 .48 1.209 1.752 1.752 0 0 1-3.502 0 1.742 1.742 0 0 1 1.32-1.695zm-6.838-.049c.966 0 1.751.786 1.751 1.751s-.785 1.751-1.75 1.751-1.752-.785-1.752-1.75.786-1.752 1.751-1.752zm16.163 6.025a3.07 3.07 0 0 1-1.508 2.133c-.758.438-1.689.577-2.669.716a17.29 17.29 0 0 0-1.64.291c-1.445.355-2.834 1.05-4.182 1.717-1.724.854-3.35 1.66-4.857 1.66a3.645 3.645 0 0 1-2.154-.688c-1.529-1.056-1.453-3.036-1.272-4.12.167-1.015.632-1.966 1.077-2.877.028-.055.049-.104.077-.16.152.056.312.098.479.126-.264 1.473.486 2.994 1.946 3.745l.264.139.284-.104c1.216-.431 2.342-1.133 3.336-2.071a9.334 9.334 0 0 0 1.445-1.716c.16.027.32.034.48.034a3.117 3.117 0 0 0 3.008-2.327h1.167a3.109 3.109 0 0 0 3.01 2.327c.576 0 1.11-.16 1.57-.43.18.52.236 1.063.139 1.605z"></path>
    </symbol>
    <symbol stroke="currentColor" fill="currentColor" stroke-width="0" xmlns="http://www.w3.org/2000/svg" viewBox="0 0 512 512" id="linkedin">
        <path d="M444.17 32H70.28C49.85 32 32 46.7 32 66.89v374.72C32 461.91 49.85 480 70.28 480h373.78c20.54 0 35.94-18.21 35.94-38.39V66.89C480.12 46.7 464.6 32 444.17 32zm-273.3 373.43h-64.18V205.88h64.18zM141 175.54h-.46c-20.54 0-33.84-15.29-33.84-34.43 0-19.49 13.65-34.42 34.65-34.42s33.85 14.82 34.31 34.42c-.01 19.14-13.31 34.43-34.66 34.43zm264.43 229.89h-64.18V296.32c0-26.14-9.34-44-32.56-44-17.74 0-28.24 12-32.91 23.69-1.75 4.2-2.22 9.92-2.22 15.76v113.66h-64.18V205.88h64.18v27.77c9.34-13.3 23.93-32.44 57.88-32.44 42.13 0 74 27.77 74 87.64z"></path>
    </symbol>
    <symbol stroke="currentColor" fill="currentColor" stroke-width="0" xmlns="http://www.w3.org/2000/svg" viewBox="0 0 16 16" id="location">
        <path d="M8 0c-2.761 0-5 2.239-5 5 0 5 5 11 5 11s5-6 5-11c0-2.761-2.239-5-5-5zM8 8.063c-1.691 0-3.063-1.371-3.063-3.063s1.371-3.063 3.063-3.063 3.063 1.371 3.063 3.063-1.371 3.063-3.063 3.063zM6.063 5c0-1.070 0.867-1.938 1.938-1.938s1.938 0.867 1.938 1.938c0 1.070-0.867 1.938-1.938 1.938s-1.938-0.867-1.938-1.938z"></path>
    </symbol>
    <symbol stroke="currentColor" fill="currentColor" stroke-width="0" viewBox="0 0 24 24" xmlns="http://www.w3.org/2000/svg" id="mail">
        <path fill="none" d="M0 0h24v24H0z"></path><path d="M20 4H4c-1.1 0-1.99.9-1.99 2L2 18c0 1.1.9 2 2 2h16c1.1 0 2-.9 2-2V6c0-1.1-.9-2-2-2zm0 4-8 5-8-5V6l8 5 8-5v2z"></path>
    </symbol>
    <symbol stroke="currentColor" fill="none" stroke-width="2" stroke-linecap="round" stroke-linejoin="round" xmlns="http://www.w3.org/2000/svg" viewBox="0 0 24 24" id="mobile">
        <path d="M11.5 21h-5.5a2 2 0 0 1 -2 -2v-14a2 2 0 0 1 2 -2h12a2 2 0 0 1 2 2v8"></path>
        <path d="M9 18h2"></path>
        <path d="M15 19l2 2l4 -4"></path>
    </symbol>
    <symbol stroke="currentColor" fill="currentColor" stroke-width="0" role="img" xmlns="http://www.w3.org/2000/svg" viewBox="0 0 24 24" id="mongo">
        <path d="M17.193 9.555c-1.264-5.58-4.252-7.414-4.573-8.115-.28-.394-.53-.954-.735-1.44-.036.495-.055.685-.523 1.184-.723.566-4.438 3.682-4.74 10.02-.282 5.912 4.27 9.435 4.888 9.884l.07.05A73.49 73.49 0 0111.91 24h.481c.114-1.032.284-2.056.51-3.07.417-.296.604-.463.85-.693a11.342 11.342 0 003.639-8.464c.01-.814-.103-1.662-.197-2.218zm-5.336 8.195s0-8.291.275-8.29c.213 0 .49 10.695.49 10.695-.381-.045-.765-1.76-.765-2.405z"></path>
    </symbol>
    <symbol stroke="currentColor" fill="currentColor" stroke-width="0" role="img" xmlns="http://www.w3.org/2000/svg" viewBox="0 0 24 24" id="mui">
        <path d="M20.229 15.793a.666.666 0 0 0 .244-.243.666.666 0 0 0 .09-.333l.012-3.858a.666.666 0 0 1 .09-.333.666.666 0 0 1 .245-.243L23 9.58a.667.667 0 0 1 .333-.088.667.667 0 0 1 .333.09.667.667 0 0 1 .244.243.666.666 0 0 1 .089.333v7.014a.667.667 0 0 1-.335.578l-7.893 4.534a.666.666 0 0 1-.662 0l-6.194-3.542a.667.667 0 0 1-.246-.244.667.667 0 0 1-.09-.335v-3.537c0-.004.004-.006.008-.004s.008 0 .008-.005v-.004c0-.003.002-.005.004-.007l5.102-2.93c.004-.003.002-.01-.003-.01a.005.005 0 0 1-.004-.002.005.005 0 0 1-.001-.004l.01-3.467a.667.667 0 0 0-.333-.58.667.667 0 0 0-.667 0L8.912 9.799a.667.667 0 0 1-.665 0l-3.804-2.19a.667.667 0 0 0-.999.577v6.267a.667.667 0 0 1-.332.577.666.666 0 0 1-.332.09.667.667 0 0 1-.333-.088L.336 13.825a.667.667 0 0 1-.246-.244.667.667 0 0 1-.09-.336L.019 2.292a.667.667 0 0 1 .998-.577l7.23 4.153a.667.667 0 0 0 .665 0l7.228-4.153a.666.666 0 0 1 .333-.088.666.666 0 0 1 .333.09.667.667 0 0 1 .244.244.667.667 0 0 1 .088.333V13.25c0 .117-.03.232-.089.334a.667.667 0 0 1-.245.244l-3.785 2.18a.667.667 0 0 0-.245.245.666.666 0 0 0-.089.334.667.667 0 0 0 .09.334.666.666 0 0 0 .247.244l2.088 1.189a.67.67 0 0 0 .33.087.667.667 0 0 0 .332-.089l4.457-2.56Zm.438-9.828a.666.666 0 0 0 .09.335.666.666 0 0 0 .248.244.667.667 0 0 0 .67-.008l2.001-1.2a.666.666 0 0 0 .237-.243.667.667 0 0 0 .087-.329V2.32a.667.667 0 0 0-.091-.335.667.667 0 0 0-.584-.33.667.667 0 0 0-.334.094l-2 1.2a.666.666 0 0 0-.238.243.668.668 0 0 0-.086.329v2.445Z"></path>
    </symbol>
    <symbol stroke="currentColor" fill="currentColor" stroke-width="0" role="img" xmlns="http://www.w3.org/2000/svg" viewBox="0 0 24 24" id="next">
        <path d="M18.665 21.978C16.758 23.255 14.465 24 12 24 5.377 24 0 18.623 0 12S5.377 0 12 0s12 5.377 12 12c0 3.583-1.574 6.801-4.067 9.001L9.219 7.2H7.2v9.596h1.615V9.251l9.85 12.727Zm-3.332-8.533 1.6 2.061V7.2h-1.6v6.245Z"></path>
    </symbol>
    <symbol stroke="currentColor" fill="currentColor" stroke-width="0" xmlns="http://www.w3.org/2000/svg" viewBox="0 0 32 32" id="node">
        <path d="M 21.300781 6 C 21.143781 6 21 6.1257812 21 6.3007812 L 21 11.796875 L 19.753906 11.070312 C 19.675906 11.024313 19.588 11.001953 19.5 11.001953 C 19.412 11.001953 19.324094 11.024312 19.246094 11.070312 L 16.251953 12.816406 C 16.095953 12.906406 16 13.072953 16 13.251953 L 16 16.748047 C 16 16.928047 16.095953 17.093594 16.251953 17.183594 L 19.246094 18.929688 C 19.324094 18.975687 19.412 18.998047 19.5 18.998047 C 19.588 18.998047 19.675906 18.975688 19.753906 18.929688 L 22.748047 17.183594 C 22.904047 17.093594 23 16.927047 23 16.748047 L 23 15 L 23 13.251953 L 23 7.2304688 C 23 7.0524688 22.904953 6.8888281 22.751953 6.7988281 L 21.449219 6.0410156 C 21.400219 6.0130156 21.350781 6 21.300781 6 z M 11.5 11.001953 C 11.41225 11.001953 11.324594 11.024813 11.246094 11.070312 L 8.2519531 12.816406 C 8.0959531 12.906406 8 13.072953 8 13.251953 L 8 16.748047 C 8 16.928047 8.0959531 17.093594 8.2519531 17.183594 L 11.246094 18.929688 C 11.403094 19.020688 11.596906 19.020688 11.753906 18.929688 L 14.748047 17.183594 C 14.904047 17.093594 15 16.927047 15 16.748047 L 15 13.251953 C 15 13.071953 14.904047 12.906406 14.748047 12.816406 L 11.753906 11.070312 C 11.675406 11.024812 11.58775 11.001953 11.5 11.001953 z M 27.5 11.001953 C 27.412 11.001953 27.324094 11.024312 27.246094 11.070312 L 24.251953 12.816406 C 24.095953 12.906406 24 13.072953 24 13.251953 L 24 16.748047 C 24 16.928047 24.095953 17.093594 24.251953 17.183594 L 27.15625 18.939453 C 27.31225 19.034453 27.508016 19.035359 27.666016 18.943359 L 29.09375 18.113281 C 29.24175 18.028281 29.24275 17.813562 29.09375 17.726562 L 26 15.904297 L 26 14.109375 L 27.5 13.236328 L 29 14.109375 L 29 15.359375 C 29 15.526375 29.140375 15.552094 29.234375 15.496094 C 29.612375 15.274094 30.751953 14.613281 30.751953 14.613281 C 30.904953 14.524281 31 14.359641 31 14.181641 L 31 13.251953 C 31 13.071953 30.904047 12.906406 30.748047 12.816406 L 27.753906 11.070312 C 27.674906 11.024313 27.588 11.001953 27.5 11.001953 z M 3.5 11.003906 C 3.412 11.003906 3.3240937 11.026266 3.2460938 11.072266 L 0.25195312 12.816406 C 0.095953125 12.907406 0 13.073906 0 13.253906 L 0 17.716797 C 0 17.934797 0.23582812 18.069938 0.42382812 17.960938 L 1.7519531 17.1875 C 1.9049531 17.0975 2 16.933859 2 16.755859 L 2 14.113281 L 3.5 13.238281 L 5 14.113281 L 5 16.755859 C 5 16.933859 5.0950469 17.0975 5.2480469 17.1875 L 6.5761719 17.960938 C 6.7641719 18.070938 7 17.934797 7 17.716797 L 7 13.253906 C 7 13.073906 6.9040469 12.907406 6.7480469 12.816406 L 3.7539062 11.072266 C 3.6759063 11.026266 3.588 11.003906 3.5 11.003906 z M 19.5 13.236328 L 21 14.111328 L 21 15 L 21 15.888672 L 19.5 16.763672 L 18 15.888672 L 18 14.111328 L 19.5 13.236328 z M 27.5 14.003906 L 26.642578 14.503906 L 26.642578 15.501953 L 27.5 16 L 28.357422 15.501953 L 28.357422 14.503906 L 27.5 14.003906 z M 15.40625 17.998047 C 15.303375 17.998047 15.199375 18.023219 15.109375 18.074219 L 12.296875 19.699219 C 12.111875 19.801219 12 20.001938 12 20.210938 L 12 23.457031 C 12 23.666031 12.116875 23.86275 12.296875 23.96875 L 13.037109 24.390625 C 13.392109 24.565625 13.522594 24.566406 13.683594 24.566406 C 14.213594 24.566406 14.515625 24.249453 14.515625 23.689453 L 14.515625 20.482422 C 14.515625 20.433422 14.477594 20.398438 14.433594 20.398438 L 14.078125 20.398438 C 14.029125 20.398438 13.994141 20.438422 13.994141 20.482422 L 13.994141 23.689453 C 13.994141 23.932453 13.737359 24.181656 13.318359 23.972656 L 12.548828 23.529297 C 12.523828 23.514297 12.505859 23.484078 12.505859 23.455078 L 12.505859 20.208984 C 12.505859 20.179984 12.519828 20.145859 12.548828 20.130859 L 15.361328 18.509766 C 15.391328 18.494766 15.425219 18.494766 15.449219 18.509766 L 18.263672 20.130859 C 18.292672 20.145859 18.306641 20.174984 18.306641 20.208984 L 18.306641 23.455078 C 18.306641 23.489078 18.287672 23.518203 18.263672 23.533203 L 15.449219 25.160156 C 15.424219 25.175156 15.385328 25.175156 15.361328 25.160156 L 14.642578 24.732422 C 14.623578 24.722422 14.593219 24.716562 14.574219 24.726562 C 14.375219 24.843563 14.335391 24.858875 14.150391 24.921875 C 14.101391 24.936875 14.034781 24.966922 14.175781 25.044922 L 15.109375 25.599609 C 15.202375 25.648609 15.30425 25.677734 15.40625 25.677734 C 15.51325 25.677734 15.617219 25.648703 15.699219 25.595703 L 18.511719 23.96875 C 18.696719 23.86675 18.808594 23.666031 18.808594 23.457031 L 18.808594 20.210938 C 18.808594 20.001938 18.691719 19.806219 18.511719 19.699219 L 15.699219 18.074219 C 15.611719 18.023219 15.509125 17.998047 15.40625 17.998047 z M 19.792969 19.496094 C 19.505969 19.496094 19.253906 19.728156 19.253906 20.035156 C 19.253906 20.332156 19.495969 20.576172 19.792969 20.576172 C 20.089969 20.576172 20.332031 20.332156 20.332031 20.035156 C 20.332031 19.728156 20.084969 19.491094 19.792969 19.496094 z M 19.787109 19.582031 C 20.041109 19.582031 20.246094 19.782156 20.246094 20.035156 C 20.246094 20.283156 20.040109 20.488141 19.787109 20.494141 C 19.538109 20.494141 19.335938 20.288156 19.335938 20.035156 C 19.335938 19.782156 19.539109 19.582031 19.787109 19.582031 z M 19.589844 19.728516 L 19.589844 20.335938 L 19.705078 20.335938 L 19.705078 20.09375 L 19.8125 20.09375 C 19.8565 20.09375 19.866953 20.112484 19.876953 20.146484 C 19.876953 20.151484 19.895391 20.308891 19.900391 20.337891 L 20.025391 20.337891 C 20.011391 20.308891 20.001094 20.225781 19.996094 20.175781 C 19.982094 20.097781 19.977531 20.044062 19.894531 20.039062 C 19.938531 20.024063 20.011719 20.000672 20.011719 19.888672 C 20.011719 19.727672 19.871828 19.728516 19.798828 19.728516 L 19.589844 19.728516 z M 19.705078 19.826172 L 19.802734 19.826172 C 19.832734 19.826172 19.890625 19.825203 19.890625 19.908203 C 19.890625 19.942203 19.875875 19.997094 19.796875 19.996094 L 19.705078 19.996094 L 19.705078 19.826172 z M 16.160156 20.322266 C 15.357156 20.322266 14.880859 20.664516 14.880859 21.228516 C 14.880859 21.846516 15.357953 22.011844 16.126953 22.089844 C 17.046953 22.181844 17.119141 22.314141 17.119141 22.494141 C 17.119141 22.810141 16.865484 22.941406 16.271484 22.941406 C 15.526484 22.941406 15.362594 22.756719 15.308594 22.386719 C 15.303594 22.347719 15.268609 22.318359 15.224609 22.318359 L 14.859375 22.318359 C 14.815375 22.318359 14.777344 22.353344 14.777344 22.402344 C 14.777344 22.874344 15.034625 23.439453 16.265625 23.439453 C 17.168625 23.438453 17.679688 23.088609 17.679688 22.474609 C 17.679688 21.866609 17.270297 21.704891 16.404297 21.587891 C 15.528297 21.470891 15.441406 21.412031 15.441406 21.207031 C 15.441406 21.037031 15.513156 20.814453 16.160156 20.814453 C 16.739156 20.814453 16.954969 20.941078 17.042969 21.330078 C 17.052969 21.369078 17.080141 21.392578 17.119141 21.392578 L 17.484375 21.392578 C 17.508375 21.392578 17.528969 21.383141 17.542969 21.369141 C 17.557969 21.350141 17.5675 21.330641 17.5625 21.306641 C 17.5045 20.634641 17.061156 20.322266 16.160156 20.322266 z"></path>
    </symbol>
    <symbol stroke="currentColor" fill="currentColor" stroke-width="0" xmlns="http://www.w3.org/2000/svg" viewBox="0 0 448 512" id="phone">
        <path d="M400 32H48A48 48 0 0 0 0 80v352a48 48 0 0 0 48 48h352a48 48 0 0 0 48-48V80a48 48 0 0 0-48-48zm-16.39 307.37l-15 65A15 15 0 0 1 354 416C194 416 64 286.29 64 126a15.7 15.7 0 0 1 11.63-14.61l65-15A18.23 18.23 0 0 1 144 96a16.27 16.27 0 0 1 13.79 9.09l30 70A17.9 17.9 0 0 1 189 181a17 17 0 0 1-5.5 11.61l-37.89 31a231.91 231.91 0 0 0 110.78 110.78l31-37.89A17 17 0 0 1 299 291a17.85 17.85 0 0 1 5.91 1.21l70 30A16.25 16.25 0 0 1 384 336a17.41 17.41 0 0 1-.39 3.37z"></path>
    </symbol>
    <symbol stroke="currentColor" fill="currentColor" stroke-width="0" xmlns="http://www.w3.org/2000/svg" viewBox="0 0 512 512" id="react">
        <path d="M418.2 177.2c-5.4-1.8-10.8-3.5-16.2-5.1.9-3.7 1.7-7.4 2.5-11.1 12.3-59.6 4.2-107.5-23.1-123.3-26.3-15.1-69.2.6-112.6 38.4-4.3 3.7-8.5 7.6-12.5 11.5-2.7-2.6-5.5-5.2-8.3-7.7-45.5-40.4-91.1-57.4-118.4-41.5-26.2 15.2-34 60.3-23 116.7 1.1 5.6 2.3 11.1 3.7 16.7-6.4 1.8-12.7 3.8-18.6 5.9C38.3 196.2 0 225.4 0 255.6c0 31.2 40.8 62.5 96.3 81.5 4.5 1.5 9 3 13.6 4.3-1.5 6-2.8 11.9-4 18-10.5 55.5-2.3 99.5 23.9 114.6 27 15.6 72.4-.4 116.6-39.1 3.5-3.1 7-6.3 10.5-9.7 4.4 4.3 9 8.4 13.6 12.4 42.8 36.8 85.1 51.7 111.2 36.6 27-15.6 35.8-62.9 24.4-120.5-.9-4.4-1.9-8.9-3-13.5 3.2-.9 6.3-1.9 9.4-2.9 57.7-19.1 99.5-50 99.5-81.7 0-30.3-39.4-59.7-93.8-78.4zM282.9 92.3c37.2-32.4 71.9-45.1 87.7-36 16.9 9.7 23.4 48.9 12.8 100.4-.7 3.4-1.4 6.7-2.3 10-22.2-5-44.7-8.6-67.3-10.6-13-18.6-27.2-36.4-42.6-53.1 3.9-3.7 7.7-7.2 11.7-10.7zM167.2 307.5c5.1 8.7 10.3 17.4 15.8 25.9-15.6-1.7-31.1-4.2-46.4-7.5 4.4-14.4 9.9-29.3 16.3-44.5 4.6 8.8 9.3 17.5 14.3 26.1zm-30.3-120.3c14.4-3.2 29.7-5.8 45.6-7.8-5.3 8.3-10.5 16.8-15.4 25.4-4.9 8.5-9.7 17.2-14.2 26-6.3-14.9-11.6-29.5-16-43.6zm27.4 68.9c6.6-13.8 13.8-27.3 21.4-40.6s15.8-26.2 24.4-38.9c15-1.1 30.3-1.7 45.9-1.7s31 .6 45.9 1.7c8.5 12.6 16.6 25.5 24.3 38.7s14.9 26.7 21.7 40.4c-6.7 13.8-13.9 27.4-21.6 40.8-7.6 13.3-15.7 26.2-24.2 39-14.9 1.1-30.4 1.6-46.1 1.6s-30.9-.5-45.6-1.4c-8.7-12.7-16.9-25.7-24.6-39s-14.8-26.8-21.5-40.6zm180.6 51.2c5.1-8.8 9.9-17.7 14.6-26.7 6.4 14.5 12 29.2 16.9 44.3-15.5 3.5-31.2 6.2-47 8 5.4-8.4 10.5-17 15.5-25.6zm14.4-76.5c-4.7-8.8-9.5-17.6-14.5-26.2-4.9-8.5-10-16.9-15.3-25.2 16.1 2 31.5 4.7 45.9 8-4.6 14.8-10 29.2-16.1 43.4zM256.2 118.3c10.5 11.4 20.4 23.4 29.6 35.8-19.8-.9-39.7-.9-59.5 0 9.8-12.9 19.9-24.9 29.9-35.8zM140.2 57c16.8-9.8 54.1 4.2 93.4 39 2.5 2.2 5 4.6 7.6 7-15.5 16.7-29.8 34.5-42.9 53.1-22.6 2-45 5.5-67.2 10.4-1.3-5.1-2.4-10.3-3.5-15.5-9.4-48.4-3.2-84.9 12.6-94zm-24.5 263.6c-4.2-1.2-8.3-2.5-12.4-3.9-21.3-6.7-45.5-17.3-63-31.2-10.1-7-16.9-17.8-18.8-29.9 0-18.3 31.6-41.7 77.2-57.6 5.7-2 11.5-3.8 17.3-5.5 6.8 21.7 15 43 24.5 63.6-9.6 20.9-17.9 42.5-24.8 64.5zm116.6 98c-16.5 15.1-35.6 27.1-56.4 35.3-11.1 5.3-23.9 5.8-35.3 1.3-15.9-9.2-22.5-44.5-13.5-92 1.1-5.6 2.3-11.2 3.7-16.7 22.4 4.8 45 8.1 67.9 9.8 13.2 18.7 27.7 36.6 43.2 53.4-3.2 3.1-6.4 6.1-9.6 8.9zm24.5-24.3c-10.2-11-20.4-23.2-30.3-36.3 9.6.4 19.5.6 29.5.6 10.3 0 20.4-.2 30.4-.7-9.2 12.7-19.1 24.8-29.6 36.4zm130.7 30c-.9 12.2-6.9 23.6-16.5 31.3-15.9 9.2-49.8-2.8-86.4-34.2-4.2-3.6-8.4-7.5-12.7-11.5 15.3-16.9 29.4-34.8 42.2-53.6 22.9-1.9 45.7-5.4 68.2-10.5 1 4.1 1.9 8.2 2.7 12.2 4.9 21.6 5.7 44.1 2.5 66.3zm18.2-107.5c-2.8.9-5.6 1.8-8.5 2.6-7-21.8-15.6-43.1-25.5-63.8 9.6-20.4 17.7-41.4 24.5-62.9 5.2 1.5 10.2 3.1 15 4.7 46.6 16 79.3 39.8 79.3 58 0 19.6-34.9 44.9-84.8 61.4zm-149.7-15c25.3 0 45.8-20.5 45.8-45.8s-20.5-45.8-45.8-45.8c-25.3 0-45.8 20.5-45.8 45.8s20.5 45.8 45.8 45.8z"></path>
    </symbol>
    <symbol stroke="currentColor" fill="none" stroke-width="2" stroke-linecap="round" stroke-linejoin="round" xmlns="http://www.w3.org/2000/svg" viewBox="0 0 24 24" id="redux">
        <path d="M16.54 7c-.805 -2.365 -2.536 -4 -4.54 -4c-2.774 0 -5.023 2.632 -5.023 6.496c0 1.956 1.582 4.727 2.512 6"></path>
        <path d="M4.711 11.979c-1.656 1.877 -2.214 4.185 -1.211 5.911c1.387 2.39 5.138 2.831 8.501 .9c1.703 -.979 2.875 -3.362 3.516 -4.798"></path>
        <path d="M15.014 19.99c2.511 0 4.523 -.438 5.487 -2.1c1.387 -2.39 -.215 -5.893 -3.579 -7.824c-1.702 -.979 -4.357 -1.235 -5.927 -1.07"></path>
        <path d="M10.493 9.862c.48 .276 1.095 .112 1.372 -.366a1 1 0 0 0 -.367 -1.365a1.007 1.007 0 0 0 -1.373 .366a1 1 0 0 0 .368 1.365z"></path>
        <path d="M9.5 15.5m-1 0a1 1 0 1 0 2 0a1 1 0 1 0 -2 0"></path>
        <path d="M15.5 14m-1 0a1 1 0 1 0 2 0a1 1 0 1 0 -2 0"></path>
    </symbol>
    <symbol stroke="currentColor" fill="none" stroke-width="2" stroke-linecap="round" stroke-linejoin="round" xmlns="http://www.w3.org/2000/svg" viewBox="0 0 24 24" id="response">
        <path d="M11.5 21h-3.5a2 2 0 0 1 -2 -2v-14a2 2 0 0 1 2 -2h8a2 2 0 0 1 2 2v8"></path>
        <path d="M20 21l2 -2l-2 -2"></path>
        <path d="M17 17l-2 2l2 2"></path>
        <path d="M11 4h2"></path>
        <path d="M12 17v.01"></path>
    </symbol>
    <symbol xmlns="http://www.w3.org/2000/svg" xmlns:xlink="http://www.w3.org/1999/xlink" stroke="currentColor" fill="currentColor" id="restApi" xml:space="preserve" viewBox="0 0 122.88 100.33">
        <g>
          <path d="M102.79,7.11l2.59,3.41c0.68,0.9,0.51,2.19-0.39,2.87l-2.75,2.09c0.5,1.33,0.82,2.75,0.95,4.2l3.13,0.43 c1.12,0.15,1.9,1.19,1.75,2.31l-0.58,4.25c-0.15,1.12-1.19,1.91-2.31,1.75l-3.42-0.47c-0.61,1.33-1.39,2.55-2.31,3.64l1.92,2.52 c0.68,0.9,0.5,2.19-0.4,2.87l-3.41,2.59c-0.9,0.68-2.19,0.5-2.87-0.39l-2.09-2.75c-1.34,0.5-2.75,0.82-4.21,0.95l-0.43,3.13 c-0.15,1.12-1.19,1.9-2.31,1.75l-4.25-0.58c-1.12-0.15-1.9-1.19-1.75-2.31l0.47-3.42c-1.32-0.61-2.55-1.39-3.64-2.3l-2.52,1.91 c-0.9,0.68-2.19,0.51-2.87-0.39l-2.59-3.41c-0.68-0.9-0.51-2.19,0.39-2.87l2.75-2.09c-0.5-1.34-0.82-2.75-0.95-4.2l-3.13-0.43 c-1.12-0.15-1.91-1.19-1.75-2.31l0.58-4.25c0.16-1.12,1.19-1.9,2.31-1.75l3.42,0.47c0.61-1.32,1.39-2.55,2.3-3.64l-1.91-2.52 C71.83,7.28,72,5.99,72.9,5.31l3.41-2.59c0.9-0.68,2.19-0.51,2.87,0.39l2.09,2.75c1.33-0.5,2.75-0.82,4.2-0.95l0.43-3.13 c0.15-1.12,1.19-1.91,2.31-1.76l4.25,0.58c1.12,0.15,1.91,1.19,1.75,2.31l-0.47,3.42c1.33,0.61,2.55,1.39,3.65,2.31l2.52-1.91 C100.81,6.04,102.1,6.21,102.79,7.11L102.79,7.11L102.79,7.11z M29.67,67.12v-16.5h8.5c1.58,0,2.78,0.13,3.61,0.41 c0.83,0.27,1.51,0.77,2.01,1.5c0.51,0.74,0.77,1.63,0.77,2.68c0,0.91-0.2,1.71-0.59,2.37c-0.39,0.67-0.93,1.21-1.61,1.62 c-0.43,0.26-1.03,0.48-1.79,0.65c0.61,0.21,1.05,0.4,1.32,0.61c0.19,0.14,0.46,0.43,0.81,0.87c0.35,0.44,0.59,0.79,0.71,1.03 l2.48,4.77h-5.76l-2.72-5.03c-0.35-0.65-0.65-1.08-0.92-1.27c-0.37-0.25-0.79-0.38-1.25-0.38h-0.45v6.68H29.67L29.67,67.12z M47.65,95.85h-9.52l-1.37,4.48h-8.58l10.23-27.19h9.2l10.19,27.19h-8.8L47.65,95.85L47.65,95.85z M45.87,89.96l-2.97-9.78 l-2.98,9.78H45.87L45.87,89.96z M59.78,73.14h13.98c3.05,0,5.33,0.72,6.84,2.17c1.51,1.45,2.27,3.52,2.27,6.19 c0,2.75-0.83,4.9-2.48,6.45c-1.65,1.55-4.18,2.32-7.57,2.32h-4.61v10.06h-8.43V73.14L59.78,73.14z M68.21,84.76h2.07 c1.63,0,2.78-0.28,3.44-0.85c0.66-0.56,0.99-1.29,0.99-2.16c0-0.85-0.29-1.58-0.86-2.17c-0.57-0.59-1.65-0.89-3.23-0.89h-2.41 V84.76L68.21,84.76z M86.27,73.14h8.43v27.19h-8.43V73.14L86.27,73.14z M34.79,57.32h2.15c0.23,0,0.68-0.08,1.35-0.23 c0.34-0.07,0.62-0.24,0.83-0.52c0.22-0.28,0.32-0.6,0.32-0.96c0-0.53-0.17-0.95-0.51-1.23c-0.34-0.29-0.97-0.43-1.9-0.43h-2.24 V57.32L34.79,57.32z M46.87,50.62h13.65v3.52h-8.53v2.63h7.91v3.36h-7.91v3.25h8.78v3.73h-13.9V50.62L46.87,50.62z M61.98,61.66 l4.84-0.3c0.1,0.79,0.32,1.38,0.64,1.79c0.53,0.66,1.28,1,2.25,1c0.72,0,1.29-0.17,1.68-0.51c0.39-0.34,0.59-0.74,0.59-1.19 c0-0.43-0.19-0.81-0.56-1.15c-0.37-0.34-1.24-0.65-2.61-0.96c-2.23-0.5-3.82-1.17-4.78-2c-0.96-0.83-1.44-1.89-1.44-3.18 c0-0.85,0.25-1.65,0.74-2.4c0.49-0.75,1.23-1.35,2.22-1.78c0.99-0.43,2.34-0.64,4.06-0.64c2.11,0,3.71,0.39,4.82,1.18 c1.1,0.79,1.76,2.03,1.97,3.75l-4.79,0.29c-0.13-0.75-0.4-1.3-0.8-1.63c-0.41-0.34-0.98-0.51-1.69-0.51 c-0.59,0-1.04,0.13-1.34,0.38c-0.3,0.25-0.45,0.56-0.45,0.92c0,0.26,0.13,0.49,0.37,0.71c0.24,0.21,0.8,0.42,1.7,0.61 c2.23,0.48,3.83,0.97,4.79,1.46c0.96,0.49,1.67,1.1,2.1,1.83c0.44,0.72,0.66,1.54,0.66,2.44c0,1.06-0.29,2.03-0.88,2.92 c-0.58,0.89-1.4,1.57-2.45,2.03c-1.05,0.46-2.37,0.69-3.97,0.69c-2.8,0-4.75-0.54-5.83-1.62C62.74,64.69,62.13,63.32,61.98,61.66 L61.98,61.66z M77.69,50.62h15.51v4.08H88v12.42H82.9V54.7h-5.21V50.62L77.69,50.62z M60.53,11.46c-1.83-0.14-3.68-0.12-5.51,0.06 c-5.63,0.54-11.1,2.59-15.62,6.1c-5.23,4.05-9.2,10.11-10.73,18.14l-0.48,2.51l-2.5,0.44c-2.45,0.43-4.64,1.02-6.56,1.77 c-1.86,0.72-3.52,1.61-4.97,2.66c-1.16,0.84-2.16,1.78-3.01,2.8c-2.63,3.15-3.85,7.1-3.82,11.1c0.03,4.06,1.35,8.16,3.79,11.53 c0.91,1.25,1.96,2.4,3.16,3.4c1.22,1.01,2.59,1.85,4.13,2.48c0.87,0.36,1.8,0.66,2.77,0.9v7.49c-2-0.36-3.84-0.9-5.56-1.61 c-2.27-0.94-4.28-2.15-6.05-3.63c-1.68-1.4-3.15-2.99-4.4-4.72C1.84,68.28,0.04,62.66,0,57.06c-0.04-5.66,1.72-11.29,5.52-15.85 c1.23-1.48,2.68-2.84,4.34-4.04c1.93-1.4,4.14-2.58,6.64-3.55c1.72-0.67,3.56-1.23,5.5-1.68c2.2-8.74,6.89-15.47,12.92-20.14 c5.64-4.37,12.43-6.92,19.42-7.59c3.67-0.35,7.39-0.19,11.03,0.49c-0.08,0.33-0.15,0.66-0.19,1l-0.01,0.06 c-0.07,0.57-0.1,1.14-0.07,1.72c-0.77,0.3-1.49,0.71-2.14,1.21l-0.03,0.02C61.96,9.44,61.14,10.38,60.53,11.46L60.53,11.46z M113.44,30.66c0.56,0.51,1.1,1.04,1.63,1.61c1.07,1.15,2.08,2.45,3.03,3.9c3.2,4.92,4.84,11.49,4.77,17.92 c-0.07,6.31-1.77,12.59-5.25,17.21c-2.27,3.01-5.18,5.47-8.67,7.42c-2.39,1.34-5.08,2.45-8.01,3.35v-7.75 c1.58-0.59,3.05-1.25,4.4-2c2.63-1.47,4.78-3.26,6.39-5.41c2.5-3.33,3.73-8.04,3.78-12.87c0.06-5.07-1.18-10.16-3.59-13.86 c-0.69-1.07-1.45-2.03-2.25-2.89c-0.31-0.33-0.62-0.64-0.94-0.94c0.05-0.5,0.07-1.01,0.04-1.52c0.77-0.3,1.49-0.71,2.14-1.21 l0.03-0.02C111.97,32.81,112.83,31.81,113.44,30.66L113.44,30.66z M88.08,12.8c4.61,0.63,7.83,4.88,7.2,9.49 c-0.63,4.61-4.88,7.84-9.49,7.21c-4.61-0.63-7.84-4.88-7.2-9.49C79.23,15.4,83.47,12.17,88.08,12.8L88.08,12.8L88.08,12.8z"></path>
        </g>
    </symbol>
    <symbol stroke="currentColor" fill="currentColor" stroke-width="0" xmlns="http://www.w3.org/2000/svg" viewBox="0 0 448 512" id="restArrow">
        <path d="M438.6 150.6c12.5-12.5 12.5-32.8 0-45.3l-96-96c-12.5-12.5-32.8-12.5-45.3 0s-12.5 32.8 0 45.3L338.7 96 32 96C14.3 96 0 110.3 0 128s14.3 32 32 32l306.7 0-41.4 41.4c-12.5 12.5-12.5 32.8 0 45.3s32.8 12.5 45.3 0l96-96zm-333.3 352c12.5 12.5 32.8 12.5 45.3 0s12.5-32.8 0-45.3L109.3 416 416 416c17.7 0 32-14.3 32-32s-14.3-32-32-32l-306.7 0 41.4-41.4c12.5-12.5 12.5-32.8 0-45.3s-32.8-12.5-45.3 0l-96 96c-12.5 12.5-12.5 32.8 0 45.3l96 96z"></path>
    </symbol>
    <symbol stroke="currentColor" fill="currentColor" stroke-width="0" xmlns="http://www.w3.org/2000/svg" viewBox="0 0 640 512" id="scss">
        <path d="M301.84 378.92c-.3.6-.6 1.08 0 0zm249.13-87a131.16 131.16 0 0 0-58 13.5c-5.9-11.9-12-22.3-13-30.1-1.2-9.1-2.5-14.5-1.1-25.3s7.7-26.1 7.6-27.2-1.4-6.6-14.3-6.7-24 2.5-25.29 5.9a122.83 122.83 0 0 0-5.3 19.1c-2.3 11.7-25.79 53.5-39.09 75.3-4.4-8.5-8.1-16-8.9-22-1.2-9.1-2.5-14.5-1.1-25.3s7.7-26.1 7.6-27.2-1.4-6.6-14.29-6.7-24 2.5-25.3 5.9-2.7 11.4-5.3 19.1-33.89 77.3-42.08 95.4c-4.2 9.2-7.8 16.6-10.4 21.6-.4.8-.7 1.3-.9 1.7.3-.5.5-1 .5-.8-2.2 4.3-3.5 6.7-3.5 6.7v.1c-1.7 3.2-3.6 6.1-4.5 6.1-.6 0-1.9-8.4.3-19.9 4.7-24.2 15.8-61.8 15.7-63.1-.1-.7 2.1-7.2-7.3-10.7-9.1-3.3-12.4 2.2-13.2 2.2s-1.4 2-1.4 2 10.1-42.4-19.39-42.4c-18.4 0-44 20.2-56.58 38.5-7.9 4.3-25 13.6-43 23.5-6.9 3.8-14 7.7-20.7 11.4-.5-.5-.9-1-1.4-1.5-35.79-38.2-101.87-65.2-99.07-116.5 1-18.7 7.5-67.8 127.07-127.4 98-48.8 176.35-35.4 189.84-5.6 19.4 42.5-41.89 121.6-143.66 133-38.79 4.3-59.18-10.7-64.28-16.3-5.3-5.9-6.1-6.2-8.1-5.1-3.3 1.8-1.2 7 0 10.1 3 7.9 15.5 21.9 36.79 28.9 18.7 6.1 64.18 9.5 119.17-11.8 61.78-23.8 109.87-90.1 95.77-145.6C386.52 18.32 293-.18 204.57 31.22c-52.69 18.7-109.67 48.1-150.66 86.4-48.69 45.6-56.48 85.3-53.28 101.9 11.39 58.9 92.57 97.3 125.06 125.7-1.6.9-3.1 1.7-4.5 2.5-16.29 8.1-78.18 40.5-93.67 74.7-17.5 38.8 2.9 66.6 16.29 70.4 41.79 11.6 84.58-9.3 107.57-43.6s20.2-79.1 9.6-99.5c-.1-.3-.3-.5-.4-.8 4.2-2.5 8.5-5 12.8-7.5 8.29-4.9 16.39-9.4 23.49-13.3-4 10.8-6.9 23.8-8.4 42.6-1.8 22 7.3 50.5 19.1 61.7 5.2 4.9 11.49 5 15.39 5 13.8 0 20-11.4 26.89-25 8.5-16.6 16-35.9 16-35.9s-9.4 52.2 16.3 52.2c9.39 0 18.79-12.1 23-18.3v.1s.2-.4.7-1.2c1-1.5 1.5-2.4 1.5-2.4v-.3c3.8-6.5 12.1-21.4 24.59-46 16.2-31.8 31.69-71.5 31.69-71.5a201.24 201.24 0 0 0 6.2 25.8c2.8 9.5 8.7 19.9 13.4 30-3.8 5.2-6.1 8.2-6.1 8.2a.31.31 0 0 0 .1.2c-3 4-6.4 8.3-9.9 12.5-12.79 15.2-28 32.6-30 37.6-2.4 5.9-1.8 10.3 2.8 13.7 3.4 2.6 9.4 3 15.69 2.5 11.5-.8 19.6-3.6 23.5-5.4a82.2 82.2 0 0 0 20.19-10.6c12.5-9.2 20.1-22.4 19.4-39.8-.4-9.6-3.5-19.2-7.3-28.2 1.1-1.6 2.3-3.3 3.4-5C434.8 301.72 450.1 270 450.1 270a201.24 201.24 0 0 0 6.2 25.8c2.4 8.1 7.09 17 11.39 25.7-18.59 15.1-30.09 32.6-34.09 44.1-7.4 21.3-1.6 30.9 9.3 33.1 4.9 1 11.9-1.3 17.1-3.5a79.46 79.46 0 0 0 21.59-11.1c12.5-9.2 24.59-22.1 23.79-39.6-.3-7.9-2.5-15.8-5.4-23.4 15.7-6.6 36.09-10.2 62.09-7.2 55.68 6.5 66.58 41.3 64.48 55.8s-13.8 22.6-17.7 25-5.1 3.3-4.8 5.1c.5 2.6 2.3 2.5 5.6 1.9 4.6-.8 29.19-11.8 30.29-38.7 1.6-34-31.09-71.4-89-71.1zm-429.18 144.7c-18.39 20.1-44.19 27.7-55.28 21.3C54.61 451 59.31 421.42 82 400c13.8-13 31.59-25 43.39-32.4 2.7-1.6 6.6-4 11.4-6.9.8-.5 1.2-.7 1.2-.7.9-.6 1.9-1.1 2.9-1.7 8.29 30.4.3 57.2-19.1 78.3zm134.36-91.4c-6.4 15.7-19.89 55.7-28.09 53.6-7-1.8-11.3-32.3-1.4-62.3 5-15.1 15.6-33.1 21.9-40.1 10.09-11.3 21.19-14.9 23.79-10.4 3.5 5.9-12.2 49.4-16.2 59.2zm111 53c-2.7 1.4-5.2 2.3-6.4 1.6-.9-.5 1.1-2.4 1.1-2.4s13.9-14.9 19.4-21.7c3.2-4 6.9-8.7 10.89-13.9 0 .5.1 1 .1 1.6-.13 17.9-17.32 30-25.12 34.8zm85.58-19.5c-2-1.4-1.7-6.1 5-20.7 2.6-5.7 8.59-15.3 19-24.5a36.18 36.18 0 0 1 1.9 10.8c-.1 22.5-16.2 30.9-25.89 34.4z"></path>
    </symbol>
    <symbol stroke="currentColor" fill="currentColor" stroke-width="0" xmlns="http://www.w3.org/2000/svg" viewBox="0 0 512 512" id="seo">
        <path d="M505 442.7L405.3 343c-4.5-4.5-10.6-7-17-7H372c27.6-35.3 44-79.7 44-128C416 93.1 322.9 0 208 0S0 93.1 0 208s93.1 208 208 208c48.3 0 92.7-16.4 128-44v16.3c0 6.4 2.5 12.5 7 17l99.7 99.7c9.4 9.4 24.6 9.4 33.9 0l28.3-28.3c9.4-9.4 9.4-24.6.1-34zM208 336c-70.7 0-128-57.2-128-128 0-70.7 57.2-128 128-128 70.7 0 128 57.2 128 128 0 70.7-57.2 128-128 128z"></path>
    </symbol>
    <symbol stroke="currentColor" fill="currentColor" stroke-width="0" xmlns="http://www.w3.org/2000/svg" viewBox="0 0 24 24" id="tailwind">
        <path d="M18.5 9.51a4.22 4.22 0 0 1-1.91-1.34A5.77 5.77 0 0 0 12 6a4.72 4.72 0 0 0-5 4 3.23 3.23 0 0 1 3.5-1.49 4.32 4.32 0 0 1 1.91 1.35A5.77 5.77 0 0 0 17 12a4.72 4.72 0 0 0 5-4 3.2 3.2 0 0 1-3.5 1.51zm-13 4.98a4.22 4.22 0 0 1 1.91 1.34A5.77 5.77 0 0 0 12 18a4.72 4.72 0 0 0 5-4 3.23 3.23 0 0 1-3.5 1.49 4.32 4.32 0 0 1-1.91-1.35A5.8 5.8 0 0 0 7 12a4.72 4.72 0 0 0-5 4 3.2 3.2 0 0 1 3.5-1.51z"></path>
    </symbol>
    <symbol stroke="currentColor" fill="currentColor" stroke-width="0" role="img" xmlns="http://www.w3.org/2000/svg" viewBox="0 0 24 24" id="telegram">
        <path d="M11.944 0A12 12 0 0 0 0 12a12 12 0 0 0 12 12 12 12 0 0 0 12-12A12 12 0 0 0 12 0a12 12 0 0 0-.056 0zm4.962 7.224c.1-.002.321.023.465.14a.506.506 0 0 1 .171.325c.016.093.036.306.02.472-.18 1.898-.962 6.502-1.36 8.627-.168.9-.499 1.201-.82 1.23-.696.065-1.225-.46-1.9-.902-1.056-.693-1.653-1.124-2.678-1.8-1.185-.78-.417-1.21.258-1.91.177-.184 3.247-2.977 3.307-3.23.007-.032.014-.15-.056-.212s-.174-.041-.249-.024c-.106.024-1.793 1.14-5.061 3.345-.48.33-.913.49-1.302.48-.428-.008-1.252-.241-1.865-.44-.752-.245-1.349-.374-1.297-.789.027-.216.325-.437.893-.663 3.498-1.524 5.83-2.529 6.998-3.014 3.332-1.386 4.025-1.627 4.476-1.635z"></path>
    </symbol>
    <symbol stroke="currentColor" fill="currentColor" stroke-width="0" xmlns="http://www.w3.org/2000/svg" viewBox="0 0 640 512" id="timeManagement">
        <path d="M96 224c35.3 0 64-28.7 64-64s-28.7-64-64-64-64 28.7-64 64 28.7 64 64 64zm448 0c35.3 0 64-28.7 64-64s-28.7-64-64-64-64 28.7-64 64 28.7 64 64 64zm32 32h-64c-17.6 0-33.5 7.1-45.1 18.6 40.3 22.1 68.9 62 75.1 109.4h66c17.7 0 32-14.3 32-32v-32c0-35.3-28.7-64-64-64zm-256 0c61.9 0 112-50.1 112-112S381.9 32 320 32 208 82.1 208 144s50.1 112 112 112zm76.8 32h-8.3c-20.8 10-43.9 16-68.5 16s-47.6-6-68.5-16h-8.3C179.6 288 128 339.6 128 403.2V432c0 26.5 21.5 48 48 48h288c26.5 0 48-21.5 48-48v-28.8c0-63.6-51.6-115.2-115.2-115.2zm-223.7-13.4C161.5 263.1 145.6 256 128 256H64c-35.3 0-64 28.7-64 64v32c0 17.7 14.3 32 32 32h65.9c6.3-47.4 34.9-87.3 75.2-109.4z"></path>
    </symbol>
    <symbol stroke="currentColor" fill="currentColor" stroke-width="0" xmlns="http://www.w3.org/2000/svg" viewBox="0 0 384 512" id="typescript">
        <path d="M384 144c0-44.2-35.8-80-80-80s-80 35.8-80 80c0 36.4 24.3 67.1 57.5 76.8-.6 16.1-4.2 28.5-11 36.9-15.4 19.2-49.3 22.4-85.2 25.7-28.2 2.6-57.4 5.4-81.3 16.9v-144c32.5-10.2 56-40.5 56-76.3 0-44.2-35.8-80-80-80S0 35.8 0 80c0 35.8 23.5 66.1 56 76.3v199.3C23.5 365.9 0 396.2 0 432c0 44.2 35.8 80 80 80s80-35.8 80-80c0-34-21.2-63.1-51.2-74.6 3.1-5.2 7.8-9.8 14.9-13.4 16.2-8.2 40.4-10.4 66.1-12.8 42.2-3.9 90-8.4 118.2-43.4 14-17.4 21.1-39.8 21.6-67.9 31.6-10.8 54.4-40.7 54.4-75.9zM80 64c8.8 0 16 7.2 16 16s-7.2 16-16 16-16-7.2-16-16 7.2-16 16-16zm0 384c-8.8 0-16-7.2-16-16s7.2-16 16-16 16 7.2 16 16-7.2 16-16 16zm224-320c8.8 0 16 7.2 16 16s-7.2 16-16 16-16-7.2-16-16 7.2-16 16-16z"></path>
    </symbol>
    <symbol stroke="currentColor" fill="currentColor" stroke-width="0" xmlns="http://www.w3.org/2000/svg" viewBox="0 0 512 512" id="vite">
        <path d="M505.12019,19.09375c-1.18945-5.53125-6.65819-11-12.207-12.1875C460.716,0,435.507,0,410.40747,0,307.17523,0,245.26909,55.20312,199.05238,128H94.83772c-16.34763.01562-35.55658,11.875-42.88664,26.48438L2.51562,253.29688A28.4,28.4,0,0,0,0,264a24.00867,24.00867,0,0,0,24.00582,24H127.81618l-22.47457,22.46875c-11.36521,11.36133-12.99607,32.25781,0,45.25L156.24582,406.625c11.15623,11.1875,32.15619,13.15625,45.27726,0l22.47457-22.46875V488a24.00867,24.00867,0,0,0,24.00581,24,28.55934,28.55934,0,0,0,10.707-2.51562l98.72834-49.39063c14.62888-7.29687,26.50776-26.5,26.50776-42.85937V312.79688c72.59753-46.3125,128.03493-108.40626,128.03493-211.09376C512.07526,76.5,512.07526,51.29688,505.12019,19.09375ZM384.04033,168A40,40,0,1,1,424.05,128,40.02322,40.02322,0,0,1,384.04033,168Z"></path>
    </symbol>
    <symbol stroke="currentColor" fill="currentColor" stroke-width="0" viewBox="0 0 24 24" xmlns="http://www.w3.org/2000/svg" id="cloud">
        <path d="M13 13V18.585L14.8284 16.7574L16.2426 18.1716L12 22.4142L7.75736 18.1716L9.17157 16.7574L11 18.585V13H13ZM12 2C15.5934 2 18.5544 4.70761 18.9541 8.19395C21.2858 8.83154 23 10.9656 23 13.5C23 16.3688 20.8036 18.7246 18.0006 18.9776L18 17C18 13.6863 15.3137 11 12 11C8.7616 11 6.12243 13.5656 6.00414 16.7751L6 17L6.00039 18.9776C3.19696 18.7252 1 16.3692 1 13.5C1 10.9656 2.71424 8.83154 5.04648 8.19411C5.44561 4.70761 8.40661 2 12 2Z"></path>
    </symbol>
</svg>
